<svg width="331" height="282" viewBox="0 0 331 282" fill="none" xmlns="http://www.w3.org/2000/svg">
<path d="M187.005 22.0676L316.938 234.726C326.913 251.052 315.163 272 296.031 272H34.117C14.9085 272 3.17114 250.901 13.3002 234.581L145.281 21.9219C154.904 6.41766 177.491 6.49652 187.005 22.0676Z" stroke="#FF0000" stroke-width="19"/>
<circle cx="165" cy="231" r="17" fill="#FF0000"/>
<path d="M165.614 67C178.156 67 187.977 77.7952 186.794 90.2822L178.986 172.71C178.325 179.677 172.475 185 165.476 185V185C158.475 185 152.623 179.674 151.966 172.704L144.217 90.5092C143.028 77.8986 152.947 67 165.614 67V67V67Z" fill="#FF0000"/>
</svg>
