<svg width="247" height="149" viewBox="0 0 247 149" fill="none" xmlns="http://www.w3.org/2000/svg">
<rect width="247" height="149" fill="#E5E5E5"/>
<rect width="247" height="149" fill="white"/>
<rect x="33" y="29" width="55" height="9" fill="#484848"/>
<rect x="33" y="45" width="55" height="9" fill="#484848"/>
<rect x="33" y="61" width="55" height="9" fill="#484848"/>
<rect x="160" y="29" width="55" height="9" fill="#484848"/>
<rect x="160" y="45" width="55" height="9" fill="#484848"/>
<rect x="160" y="61" width="55" height="9" fill="#484848"/>
<g filter="url(#filter0_d)">
<path d="M128.641 84V85H129.313L129.566 84.3778L128.641 84ZM119.359 84L118.434 84.3778L118.687 85H119.359V84ZM92.4062 17.9531V16.9531H90.9181L91.4804 18.331L92.4062 17.9531ZM101.828 17.9531L102.759 17.5872L102.509 16.9531H101.828V17.9531ZM120.109 64.4531L121.057 64.1335L121.049 64.1101L121.04 64.0872L120.109 64.4531ZM124.047 76.125L123.099 76.4447L124.047 79.2534L124.994 76.4447L124.047 76.125ZM127.984 64.4531L127.053 64.0889L127.044 64.111L127.037 64.1335L127.984 64.4531ZM146.172 17.9531V16.9531H145.489L145.241 17.5889L146.172 17.9531ZM155.594 17.9531L156.52 18.331L157.082 16.9531H155.594V17.9531ZM128.641 83H119.359V85H128.641V83ZM120.285 83.6222L93.3321 17.5753L91.4804 18.331L118.434 84.3778L120.285 83.6222ZM92.4062 18.9531H101.828V16.9531H92.4062V18.9531ZM100.897 18.319L119.179 64.819L121.04 64.0872L102.759 17.5872L100.897 18.319ZM119.162 64.7728L123.099 76.4447L124.994 75.8053L121.057 64.1335L119.162 64.7728ZM124.994 76.4447L128.932 64.7728L127.037 64.1335L123.099 75.8053L124.994 76.4447ZM128.916 64.8174L147.103 18.3174L145.241 17.5889L127.053 64.0889L128.916 64.8174ZM146.172 18.9531H155.594V16.9531H146.172V18.9531ZM154.668 17.5753L127.715 83.6222L129.566 84.3778L156.52 18.331L154.668 17.5753Z" fill="black"/>
</g>
<path d="M70.147 101.967H78.233V119H70.147V101.967ZM64.065 95.6738H84.315V100.754H64.065V95.6738ZM86.5657 119V95.6738H94.3352V119H86.5657ZM95.5657 100.332V95.6738H104.443L109.118 100.332V107.328L105.532 110.914L105.286 110.422L97.9915 111.389L98.2727 112.004H95.5657V107.486H101.402V100.332H95.5657ZM109.909 119H101.613L98.2727 112.004H104.443L105.532 110.914L109.909 119ZM127.277 116.451H119.648L121.266 111.828H125.484L119.244 95.6738H126.82L136.119 119H128.262L127.277 116.451ZM117.574 119H110.068L118.4 96.7285L121.846 105.992L117.574 119ZM146.614 119V114.342H152.38V100.332H146.614V95.6738H155.491L160.167 100.332V114.342L155.491 119H146.614ZM137.614 95.6738H145.384V119H137.614V95.6738ZM170.785 109.42V119H163.015V95.6738H170.785V104.92H178.22V109.42H170.785ZM172.015 100.191V95.6738H184.162V102.424H176.849V100.191H172.015ZM172.015 119V114.342H176.392V112.004H184.162V119H172.015Z" fill="black"/>
<path d="M97.11 138L93.8932 132.858H90.0348V138H88.3561V125.616H94.1832C95.5777 125.616 96.6529 125.93 97.4088 126.557C98.1705 127.178 98.5514 128.045 98.5514 129.158C98.5514 130.078 98.2818 130.852 97.7428 131.479C97.2096 132.105 96.4713 132.501 95.5279 132.665L99.0436 138H97.11ZM96.8639 129.176C96.8639 128.455 96.6178 127.907 96.1256 127.532C95.6393 127.151 94.9361 126.961 94.0162 126.961H90.0348V131.531H94.0865C94.9713 131.531 95.6539 131.326 96.1344 130.916C96.6207 130.5 96.8639 129.92 96.8639 129.176ZM112.667 131.751C112.667 133.046 112.418 134.18 111.92 135.152C111.428 136.125 110.719 136.872 109.793 137.394C108.867 137.915 107.774 138.176 106.515 138.176C105.243 138.176 104.144 137.918 103.219 137.402C102.299 136.887 101.596 136.143 101.109 135.17C100.623 134.191 100.38 133.052 100.38 131.751C100.38 129.771 100.922 128.224 102.006 127.11C103.09 125.991 104.599 125.432 106.532 125.432C107.792 125.432 108.885 125.684 109.811 126.188C110.736 126.686 111.442 127.412 111.929 128.367C112.421 129.322 112.667 130.45 112.667 131.751ZM110.953 131.751C110.953 130.21 110.566 129 109.793 128.121C109.025 127.242 107.938 126.803 106.532 126.803C105.114 126.803 104.019 127.236 103.245 128.104C102.472 128.971 102.085 130.187 102.085 131.751C102.085 133.304 102.475 134.537 103.254 135.451C104.039 136.359 105.126 136.813 106.515 136.813C107.944 136.813 109.04 136.374 109.802 135.495C110.569 134.61 110.953 133.362 110.953 131.751ZM119.602 138.176C118.588 138.176 117.703 137.991 116.948 137.622C116.192 137.253 115.606 136.717 115.19 136.014C114.774 135.311 114.566 134.473 114.566 133.5V125.616H116.244V133.359C116.244 134.49 116.532 135.349 117.106 135.935C117.68 136.521 118.509 136.813 119.593 136.813C120.706 136.813 121.571 136.512 122.186 135.908C122.807 135.299 123.118 134.411 123.118 133.245V125.616H124.787V133.342C124.787 134.344 124.574 135.208 124.146 135.935C123.724 136.661 123.123 137.218 122.344 137.604C121.571 137.985 120.657 138.176 119.602 138.176ZM132.153 126.987V138H130.483V126.987H126.229V125.616H136.407V126.987H132.153ZM137.945 138V125.616H147.341V126.987H139.624V130.96H146.814V132.313H139.624V136.629H147.701V138H137.945ZM159.294 134.581C159.294 135.724 158.846 136.608 157.95 137.235C157.059 137.862 155.802 138.176 154.179 138.176C151.162 138.176 149.413 137.127 148.932 135.029L150.558 134.704C150.746 135.448 151.144 135.996 151.753 136.348C152.363 136.693 153.192 136.866 154.241 136.866C155.325 136.866 156.16 136.682 156.746 136.312C157.337 135.938 157.633 135.39 157.633 134.669C157.633 134.265 157.539 133.937 157.352 133.685C157.17 133.433 156.913 133.225 156.579 133.061C156.245 132.896 155.846 132.759 155.383 132.647C154.92 132.536 154.408 132.416 153.845 132.287C152.867 132.07 152.122 131.854 151.613 131.637C151.109 131.42 150.71 131.18 150.417 130.916C150.124 130.646 149.899 130.333 149.741 129.976C149.588 129.618 149.512 129.208 149.512 128.745C149.512 127.685 149.916 126.867 150.725 126.293C151.539 125.719 152.703 125.432 154.214 125.432C155.621 125.432 156.696 125.648 157.44 126.082C158.184 126.51 158.705 127.242 159.004 128.279L157.352 128.569C157.17 127.913 156.825 127.438 156.315 127.146C155.805 126.847 155.099 126.697 154.197 126.697C153.206 126.697 152.451 126.861 151.929 127.189C151.408 127.518 151.147 128.007 151.147 128.657C151.147 129.038 151.246 129.354 151.446 129.606C151.651 129.853 151.944 130.063 152.325 130.239C152.705 130.409 153.464 130.62 154.601 130.872C154.982 130.96 155.36 131.051 155.735 131.145C156.116 131.232 156.479 131.341 156.825 131.47C157.17 131.593 157.493 131.739 157.791 131.909C158.096 132.079 158.36 132.287 158.582 132.533C158.805 132.779 158.978 133.069 159.101 133.403C159.23 133.737 159.294 134.13 159.294 134.581Z" fill="black"/>
<defs>
<filter id="filter0_d" x="89.9181" y="15.9531" width="74.1638" height="76.0469" filterUnits="userSpaceOnUse" color-interpolation-filters="sRGB">
<feFlood flood-opacity="0" result="BackgroundImageFix"/>
<feColorMatrix in="SourceAlpha" type="matrix" values="0 0 0 0 0 0 0 0 0 0 0 0 0 0 0 0 0 0 127 0" result="hardAlpha"/>
<feOffset dx="3" dy="3"/>
<feGaussianBlur stdDeviation="2"/>
<feComposite in2="hardAlpha" operator="out"/>
<feColorMatrix type="matrix" values="0 0 0 0 0 0 0 0 0 0 0 0 0 0 0 0 0 0 0.25 0"/>
<feBlend mode="normal" in2="BackgroundImageFix" result="effect1_dropShadow"/>
<feBlend mode="normal" in="SourceGraphic" in2="effect1_dropShadow" result="shape"/>
</filter>
</defs>
</svg>
